<?xml version="1.0" encoding="utf-8"?>
<svg xmlns="http://www.w3.org/2000/svg" viewBox="0 0 200 51.1">
    <style>
        .st0{fill:#000;}
        
    </style>
    <path class="st0" d="M23.5 0L0 15h9.2c-5 7.6-4 14.9 0 20.4H.1l23.4 15.7 23.4-15.7h-9.2c3.5-4.9 5.3-12.5 0-20.5H47L23.5 0zm.1 41.8c-3.4.1-6.2-2.7-6.3-6.1-.1-2 .8-3.9 2.4-5.1v6.7H27v-6.7c1.7 1.1 2.6 3 2.6 5 0 3.4-2.7 6.1-6 6.2zm7.1-5.9c-.4-4.6-2.9-7.4-6.8-7.8-4.7-.1-7.5 3.3-7.7 7.8-1.4-5.3 1.1-9.7 7.4-10 6.3.3 8.6 5.3 7.1 10zm1.7-.6c.9-7.3-4-10.9-8.2-11.2-1-.1-2.1 0-3.1.3-4.8 1.3-7.7 6.2-6.5 11C10.4 29 17 20.8 24 21.5c6.2-.4 12 7.4 8.4 13.8zm2.6-1.6c0 .1 0 .1 0 0 0 .1 0 .1 0 0 1.1-9.5-5.4-13.8-10.8-14.3-7-.5-14.3 6-12.2 14.3-4.3-7.4 2.7-18.4 11.8-17.6 8-.4 15 9.6 11.2 17.6zm2.2-.8c0 .1 0 .1 0 0 0 .1 0 .1 0 0C40.6 5.8 4.4 10.2 9.7 33 4.8 21.2 12.5 10.3 23.3 9.9c11.1-.2 18.8 11.3 13.9 23zM80.6 17.6c.4-1 .4-2.2 0-3.2-.2-.4-.6-.8-1-1.1-.3-.2-.7-.4-1.1-.5-.7-.1-1.5-.2-2.2-.1h-1.4v6.7h1.7c.7 0 1.3 0 2-.1.4-.1.8-.3 1.1-.5l.9-1.2zm-2-.1c-.5.3-1 .5-1.6.4h-.3v-3.8h.3c.6 0 1.1.1 1.6.5.4.4.5.9.5 1.4 0 .6-.2 1.1-.5 1.5zM118.2 19.3h-.1l.1.1zM117 17.9h-2.4v-1.2h2.2v-1.4h-2.2v-1.2h2.4v-1.5h-4.2v6.8h4.2zM186.7 18.5c.7-.6 1.1-1.5 1.1-2.5 0-.9-.4-1.9-1.1-2.5-.3-.3-.7-.6-1.2-.8-.9-.4-1.9-.4-2.8 0-.4.2-.8.4-1.2.8l-.2.2c-1.3 1.4-1.2 3.5.2 4.8.3.3.7.6 1.2.8 1.4.6 2.9.3 4-.8zm-3.9-3.9c0-.1.1-.1.1-.1.7-.6 1.8-.6 2.4.1.7.8.7 2 0 2.9-.3.4-.8.6-1.3.6s-1-.2-1.3-.6c-.5-.8-.5-2 .1-2.9zM180 19.4l-1.8-2.7c.4-.1.8-.3 1.1-.7.3-.4.4-.8.4-1.3 0-.3-.1-.7-.2-1-.1-.3-.3-.5-.6-.7-.2-.2-.5-.3-.8-.4-.5-.1-1.1-.1-1.6-.1h-1.9v6.8h1.7v-2.7l1.6 2.7h2.1zm-2.4-3.8c-.3.2-.6.2-.9.2h-.3V14h.4c.3 0 .6 0 .9.2.2.2.3.5.3.7-.1.4-.2.6-.4.7zM151.6 19c.3.2.6.4 1 .5.4.1.7.2 1.1.2.3 0 .5 0 .8-.1.2 0 .4-.1.7-.2l.7 1h1.6l-1.2-1.7c.4-.3.6-.7.8-1.1.2-.4.3-.9.3-1.4 0-.5-.1-.9-.3-1.4-.2-.4-.5-.8-.8-1.1-.3-.3-.7-.6-1.2-.8-.9-.4-1.9-.4-2.8 0-.4.2-.8.4-1.2.8-.3.3-.6.7-.8 1.1-.2.4-.3.9-.3 1.4 0 .6.1 1.2.4 1.7.3.3.7.8 1.2 1.1zm.7-4.4c0-.1.1-.1.2-.2.7-.6 1.8-.5 2.4.2.5.6.6 1.3.4 2.1 0 .2-.1.4-.2.5l-.4-.5h-1.6l1 1.3-.2.1h-.2c-.5 0-1-.2-1.3-.6-.3-.4-.5-.9-.5-1.4-.1-.6.1-1.1.4-1.5zM73.3 19.4v-6.8h-1.7v4c0 .2.1.5.1.8-.1-.3-.3-.5-.4-.8-.1-.1-.2-.3-.2-.4l-2.6-3.5h-1.8v6.8h1.7v-3.9c-.1-.2-.1-.5-.1-.8.1.3.3.5.4.8.1.1.2.3.2.4l2.6 3.5h1.8zM145.8 19.4v-6.8H144v4c0 .2.1.5.1.8-.1-.3-.3-.5-.4-.8-.1-.1-.2-.3-.2-.4l-2.6-3.5h-1.8v6.8h1.8v-3.9c-.1-.2-.1-.5-.1-.8.1.3.3.5.4.8.1.1.2.3.2.4l2.6 3.5h1.8zM74.8 19.4v-.1zM162.5 17c0 .2-.1.4-.1.5-.1.2-.2.3-.4.4-.4.2-.9.2-1.3 0-.2-.1-.3-.2-.4-.4-.1-.2-.1-.4-.1-.5v-4.4h-1.8v3.6c0 .6 0 1.1.1 1.7.1.3.2.6.5.9.3.3.6.5 1 .6 1 .3 2 .3 3 0 .4-.1.7-.3 1-.6.2-.3.4-.6.5-.9.1-.5.2-1.1.1-1.7v-3.6h-1.9V17zM194.2 19.4v-1.5h-3l3.4-5.3h-5.7v1.5h2.7l-3.4 5.3zM173.2 12.6h-1.9v6.8h1.9zM170 17.9h-2.4v-1.2h2.3v-1.4h-2.3v-1.2h2.4v-1.5h-4.2v6.8h4.2zM83.3 18.2H86l.3 1.2h1.8l-2.4-6.8h-2.3l-2.3 6.8H83l.3-1.2zm1.1-3.5l.1-.4.1-.5.1.6c.1.1.1.2.1.3l.7 2.2h-1.8l.7-2.2z"/>
</svg>