<svg xmlns="http://www.w3.org/2000/svg" id="Capa_1" viewBox="0 0 32 32" fill="#fff"><path d="M4.1 0h23.8C30.2 0 32 1.7 32 4.1v23.8c0 2.4-1.8 4.1-4.1 4.1H4.1C1.8 32 0 30.3 0 27.9V4.1C0 1.7 1.8 0 4.1 0L4.1 0zM23.3 3.6c-0.8 0-1.4 0.6-1.4 1.4v3.4c0 0.8 0.6 1.4 1.4 1.4h3.6c0.8 0 1.4-0.6 1.4-1.4V5c0-0.8-0.6-1.4-1.4-1.4H23.3L23.3 3.6zM28.4 13.5h-2.8c0.3 0.9 0.4 1.8 0.4 2.7 0 5.3-4.5 9.6-9.9 9.6 -5.5 0-9.9-4.3-9.9-9.6 0-1 0.1-1.9 0.4-2.7H3.6v13.5c0 0.7 0.6 1.3 1.3 1.3h22.3c0.7 0 1.3-0.6 1.3-1.3L28.4 13.5 28.4 13.5zM16 9.7c-3.5 0-6.4 2.8-6.4 6.2s2.9 6.2 6.4 6.2c3.5 0 6.4-2.8 6.4-6.2S19.6 9.7 16 9.7z"/></svg>
