<svg xmlns="http://www.w3.org/2000/svg" viewBox="0 0 32 32" fill="#fff"><path d="M30.2 1.8C29.1 0.6 27.7 0 26 0H6C4.3 0 2.9 0.6 1.8 1.8 0.6 2.9 0 4.3 0 6v20c0 1.7 0.6 3.1 1.8 4.2C2.9 31.4 4.3 32 6 32h20c1.7 0 3.1-0.6 4.2-1.8 1.2-1.2 1.8-2.6 1.8-4.2V6C32 4.3 31.4 2.9 30.2 1.8zM9.8 26.8H4.9V12.3h4.8L9.8 26.8 9.8 26.8zM9.3 9.7c-0.5 0.5-1.2 0.7-2 0.7h0c-0.8 0-1.4-0.2-1.9-0.7C4.9 9.2 4.6 8.6 4.6 7.9c0-0.7 0.3-1.3 0.8-1.8 0.5-0.5 1.2-0.7 2-0.7 0.8 0 1.5 0.2 1.9 0.7 0.5 0.5 0.7 1.1 0.7 1.8C10.1 8.6 9.8 9.2 9.3 9.7zM27.1 26.8h-4.8v-7.7c0-2.2-0.8-3.3-2.4-3.3 -0.6 0-1.1 0.2-1.5 0.5 -0.4 0.3-0.7 0.8-0.9 1.2 -0.1 0.2-0.1 0.6-0.1 1.2v8.1h-4.8c0-8.7 0-13.5 0-14.5h4.8v2c1-1.6 2.4-2.4 4.3-2.4 1.7 0 3 0.5 4 1.6 1 1.1 1.5 2.7 1.5 4.9L27.1 26.8 27.1 26.8 27.1 26.8z"/></svg>
