<?xml version="1.0" encoding="utf-8"?>
<!-- Generator: Adobe Illustrator 22.0.1, SVG Export Plug-In . SVG Version: 6.00 Build 0)  -->
<svg version="1.1" id="Camada_1" xmlns="http://www.w3.org/2000/svg" xmlns:xlink="http://www.w3.org/1999/xlink" x="0px" y="0px"
	 viewBox="0 0 110 110" style="enable-background:new 0 0 110 110;" xml:space="preserve">
<style type="text/css">
	.st0{fill-rule:evenodd;clip-rule:evenodd;fill:#39B54A;}
	.st1{fill-rule:evenodd;clip-rule:evenodd;fill:#FFFFFF;}
	.st2{fill-rule:evenodd;clip-rule:evenodd;}
</style>
<g id="r2V3mg.tif">
	<g>
		<path class="st0" d="M-109.7-164.8c0.1,25.7-21.3,46.5-47.1,46.1c-24.9-0.4-45.4-21-45.3-46.4c0-25.5,20.9-46.3,46.4-46.2
			C-130.2-211.2-109.7-190.5-109.7-164.8z M-122.2-174c0-2.2-1.4-3.4-3.2-4.3c-18.9-9.4-38.5-10.5-58.7-5.7c-2.8,0.7-4.1,3-3.5,5.4
			c0.7,2.5,3,3.6,6,2.8c9.9-2.7,20-2.9,30.2-1.6c8.1,1,15.8,3.1,23,7.1C-125.5-168.7-122.2-170.7-122.2-174z M-163.7-171.4
			c-6,1-12,2-17.9,3.1c-2,0.4-3.2,1.8-3,3.9c0.2,2.3,2.3,3.3,5.1,2.9c5.6-0.9,11.2-2,16.8-2.1c10.2-0.1,19.9,2.3,28.8,7.6
			c1.9,1.1,4.1,0.3,5-1.6c0.8-1.8,0.1-3.5-2.2-4.9C-141.2-168.3-152.1-170.6-163.7-171.4z M-163.1-156.1c-5.5,0.8-10.9,1.4-16.3,2.3
			c-2.4,0.4-3.7,1.9-3.1,3.6c0.7,2.2,2.3,2.4,4.4,1.9c8.6-1.9,17.3-2.7,26-0.6c4.6,1.1,8.9,3.2,13.3,5.1c1.8,0.7,3.2,0.8,4.2-0.9
			c1-1.7,0.1-3-1.4-3.9c-0.4-0.3-0.8-0.5-1.3-0.7C-145.4-153.8-154-155.7-163.1-156.1z"/>
		<path class="st1" d="M-122.2-174c0,3.3-3.3,5.3-6.3,3.7c-7.2-4-14.9-6.1-23-7.1c-10.1-1.3-20.2-1-30.2,1.6c-3,0.8-5.3-0.3-6-2.8
			c-0.7-2.4,0.7-4.7,3.5-5.4c20.2-4.8,39.9-3.7,58.7,5.7C-123.6-177.4-122.2-176.2-122.2-174z"/>
		<path class="st1" d="M-131.1-162.5c2.3,1.3,3,3,2.2,4.9c-0.8,1.9-3.1,2.8-5,1.6c-8.9-5.3-18.6-7.7-28.8-7.6
			c-5.6,0-11.2,1.2-16.8,2.1c-2.7,0.4-4.9-0.5-5.1-2.9c-0.2-2.1,1-3.5,3-3.9C-156.6-175.8-141.2-168.3-131.1-162.5z"/>
		<path class="st1" d="M-163.1-156.1c6.2-0.5,17.7,2.3,25.7,6.7c0.4,0.2,0.9,0.5,1.3,0.7c1.5,0.9,2.4,2.2,1.4,3.9
			c-1,1.8-2.5,1.7-4.2,0.9c-4.4-1.8-8.7-3.9-13.3-5.1c-8.6-2.2-17.4-1.3-26,0.6c-2.1,0.4-3.7,0.3-4.4-1.9c-0.5-1.7,0.7-3.2,3.1-3.6
			C-174.1-154.7-169.4-155.6-163.1-156.1z"/>
	</g>
</g>
<g id="r2V3mg.tif_1_">
	<g>
		<path class="st2" d="M26.8-164.8c0.1,25.7-21.3,46.5-47.1,46.1c-24.9-0.4-45.4-21-45.3-46.4c0-25.5,20.9-46.3,46.4-46.2
			C6.3-211.2,26.8-190.5,26.8-164.8z M14.3-174c0-2.2-1.4-3.4-3.2-4.3c-18.9-9.4-38.5-10.5-58.7-5.7c-2.8,0.7-4.1,3-3.5,5.4
			c0.7,2.5,3,3.6,6,2.8c9.9-2.7,20-2.9,30.2-1.6c8.1,1,15.8,3.1,23,7.1C11-168.7,14.3-170.7,14.3-174z M-27.2-171.4
			c-6,1-12,2-17.9,3.1c-2,0.4-3.2,1.8-3,3.9c0.2,2.3,2.3,3.3,5.1,2.9c5.6-0.9,11.2-2,16.8-2.1c10.2-0.1,19.9,2.3,28.8,7.6
			c1.9,1.1,4.1,0.3,5-1.6c0.8-1.8,0.1-3.5-2.2-4.9C-4.7-168.3-15.6-170.6-27.2-171.4z M-26.7-156.1c-5.5,0.8-10.9,1.4-16.3,2.3
			c-2.4,0.4-3.7,1.9-3.1,3.6c0.7,2.2,2.3,2.4,4.4,1.9c8.6-1.9,17.3-2.7,26-0.6c4.6,1.1,8.9,3.2,13.3,5.1c1.8,0.7,3.2,0.8,4.2-0.9
			c1-1.7,0.1-3-1.4-3.9c-0.4-0.3-0.8-0.5-1.3-0.7C-9-153.8-17.6-155.7-26.7-156.1z"/>
		<path class="st1" d="M14.3-174c0,3.3-3.3,5.3-6.3,3.7c-7.2-4-14.9-6.1-23-7.1c-10.2-1.3-20.2-1-30.2,1.6c-3,0.8-5.3-0.3-6-2.8
			c-0.7-2.4,0.7-4.7,3.5-5.4c20.2-4.8,39.9-3.7,58.7,5.7C12.8-177.4,14.2-176.2,14.3-174z"/>
		<path class="st1" d="M5.3-162.5c2.3,1.3,3,3,2.2,4.9c-0.8,1.9-3.1,2.8-5,1.6c-8.9-5.3-18.6-7.7-28.8-7.6c-5.6,0-11.2,1.2-16.8,2.1
			c-2.7,0.4-4.9-0.5-5.1-2.9c-0.2-2.1,1-3.5,3-3.9C-20.2-175.8-4.7-168.3,5.3-162.5z"/>
		<path class="st1" d="M-26.7-156.1c6.2-0.5,17.7,2.3,25.7,6.7c0.4,0.2,0.9,0.5,1.3,0.7c1.5,0.9,2.4,2.2,1.4,3.9
			c-1,1.8-2.5,1.7-4.2,0.9c-4.4-1.8-8.7-3.9-13.3-5.1c-8.6-2.2-17.4-1.3-26,0.6c-2.1,0.4-3.7,0.3-4.4-1.9c-0.5-1.7,0.7-3.2,3.1-3.6
			C-37.6-154.7-32.9-155.6-26.7-156.1z"/>
	</g>
</g>
<path class="st1" d="M55.2,1C25.1,0.9,0.5,25.3,0.5,55.4c0,30,24.1,54.3,53.4,54.7c30.4,0.4,55.7-24.1,55.6-54.4
	C109.5,25.5,85.3,1.1,55.2,1z M79.9,79.4c-1.2,2.1-2.9,2-5,1.1c-5.2-2.1-10.3-4.6-15.7-6c-10.2-2.5-20.5-1.5-30.6,0.7
	c-2.4,0.5-4.3,0.3-5.1-2.3c-0.6-2,0.8-3.7,3.7-4.2c6.4-1,12-2.1,19.3-2.7c4.7-0.4,11.9,0.8,18.9,3.1c3.9,1.2,7.7,2.8,11.4,4.8
	c0.5,0.3,1,0.6,1.5,0.9C80,75.9,81.1,77.4,79.9,79.4z M86.8,64.3c-1,2.2-3.6,3.2-5.9,1.9c-10.5-6.2-21.9-9-34-8.9
	c-6.6,0-13.3,1.4-19.8,2.4c-3.2,0.5-5.7-0.6-6-3.4c-0.2-2.5,1.1-4.2,3.5-4.6c7.7-2.3,14.7-3.4,21-3.7c0.1,0,0.1,0,0.2,0
	c0.1,0,0.2,0,0.2,0c17.4-0.6,29.5,5.5,38.1,10.5C86.9,60.1,87.8,62.1,86.8,64.3z M87.3,49.3c-8.5-4.7-17.6-7.2-27.1-8.4
	c-12-1.5-23.8-1.2-35.6,1.9c-3.5,0.9-6.2-0.3-7-3.3c-0.8-2.8,0.8-5.5,4.1-6.3c23.8-5.7,47-4.3,69.2,6.7c2.1,1.1,3.8,2.4,3.8,5
	C94.8,48.9,90.9,51.3,87.3,49.3z"/>
</svg>
