<?xml version="1.0" encoding="utf-8"?>
<svg xmlns="http://www.w3.org/2000/svg" viewBox="0 0 200 51.1">
    <style>
        .st0{fill:#FFF;}
        
    </style>    
    <path class="st0" d="M23.5 0L0 15h9.2c-5 7.6-4 14.9 0 20.4H.1l23.4 15.7 23.4-15.7h-9.2c3.5-4.9 5.3-12.5 0-20.5H47L23.5 0zm.1 41.8c-3.4.1-6.2-2.7-6.3-6.1-.1-2 .8-3.9 2.4-5.1v6.7H27v-6.7c1.7 1.1 2.6 3 2.6 5 0 3.4-2.7 6.1-6 6.2zm7.1-5.9c-.4-4.6-2.9-7.4-6.8-7.8-4.7-.1-7.5 3.3-7.7 7.8-1.4-5.3 1.1-9.7 7.4-10 6.3.3 8.6 5.3 7.1 10zm1.7-.6c.9-7.3-4-10.9-8.2-11.2-1-.1-2.1 0-3.1.3-4.8 1.3-7.7 6.2-6.5 11C10.4 29 17 20.8 24 21.5c6.2-.4 12 7.4 8.4 13.8zm2.6-1.6c0 .1 0 .1 0 0 0 .1 0 .1 0 0 1.1-9.5-5.4-13.8-10.8-14.3-7-.5-14.3 6-12.2 14.3-4.3-7.4 2.7-18.4 11.8-17.6 8-.4 15 9.6 11.2 17.6zm2.2-.8c0 .1 0 .1 0 0 0 .1 0 .1 0 0C40.6 5.8 4.4 10.2 9.7 33 4.8 21.2 12.5 10.3 23.3 9.9c11.1-.2 18.8 11.3 13.9 23zM80.6 17.6c.4-1 .4-2.2 0-3.2-.2-.4-.6-.8-1-1.1-.3-.2-.7-.4-1.1-.5-.7-.1-1.5-.2-2.2-.1h-1.4v6.7h1.7c.7 0 1.3 0 2-.1.4-.1.8-.3 1.1-.5l.9-1.2zm-2-.1c-.5.3-1 .5-1.6.4h-.3v-3.8h.3c.6 0 1.1.1 1.6.5.4.4.5.9.5 1.4 0 .6-.2 1.1-.5 1.5zM118.2 19.3h-.1l.1.1zM117 17.9h-2.4v-1.2h2.2v-1.4h-2.2v-1.2h2.4v-1.5h-4.2v6.8h4.2zM186.7 18.5c.7-.6 1.1-1.5 1.1-2.5 0-.9-.4-1.9-1.1-2.5-.3-.3-.7-.6-1.2-.8-.9-.4-1.9-.4-2.8 0-.4.2-.8.4-1.2.8l-.2.2c-1.3 1.4-1.2 3.5.2 4.8.3.3.7.6 1.2.8 1.4.6 2.9.3 4-.8zm-3.9-3.9c0-.1.1-.1.1-.1.7-.6 1.8-.6 2.4.1.7.8.7 2 0 2.9-.3.4-.8.6-1.3.6s-1-.2-1.3-.6c-.5-.8-.5-2 .1-2.9zM180 19.4l-1.8-2.7c.4-.1.8-.3 1.1-.7.3-.4.4-.8.4-1.3 0-.3-.1-.7-.2-1-.1-.3-.3-.5-.6-.7-.2-.2-.5-.3-.8-.4-.5-.1-1.1-.1-1.6-.1h-1.9v6.8h1.7v-2.7l1.6 2.7h2.1zm-2.4-3.8c-.3.2-.6.2-.9.2h-.3V14h.4c.3 0 .6 0 .9.2.2.2.3.5.3.7-.1.4-.2.6-.4.7zM151.6 19c.3.2.6.4 1 .5.4.1.7.2 1.1.2.3 0 .5 0 .8-.1.2 0 .4-.1.7-.2l.7 1h1.6l-1.2-1.7c.4-.3.6-.7.8-1.1.2-.4.3-.9.3-1.4 0-.5-.1-.9-.3-1.4-.2-.4-.5-.8-.8-1.1-.3-.3-.7-.6-1.2-.8-.9-.4-1.9-.4-2.8 0-.4.2-.8.4-1.2.8-.3.3-.6.7-.8 1.1-.2.4-.3.9-.3 1.4 0 .6.1 1.2.4 1.7.3.3.7.8 1.2 1.1zm.7-4.4c0-.1.1-.1.2-.2.7-.6 1.8-.5 2.4.2.5.6.6 1.3.4 2.1 0 .2-.1.4-.2.5l-.4-.5h-1.6l1 1.3-.2.1h-.2c-.5 0-1-.2-1.3-.6-.3-.4-.5-.9-.5-1.4-.1-.6.1-1.1.4-1.5zM73.3 19.4v-6.8h-1.7v4c0 .2.1.5.1.8-.1-.3-.3-.5-.4-.8-.1-.1-.2-.3-.2-.4l-2.6-3.5h-1.8v6.8h1.7v-3.9c-.1-.2-.1-.5-.1-.8.1.3.3.5.4.8.1.1.2.3.2.4l2.6 3.5h1.8zM145.8 19.4v-6.8H144v4c0 .2.1.5.1.8-.1-.3-.3-.5-.4-.8-.1-.1-.2-.3-.2-.4l-2.6-3.5h-1.8v6.8h1.8v-3.9c-.1-.2-.1-.5-.1-.8.1.3.3.5.4.8.1.1.2.3.2.4l2.6 3.5h1.8zM74.8 19.4v-.1zM162.5 17c0 .2-.1.4-.1.5-.1.2-.2.3-.4.4-.4.2-.9.2-1.3 0-.2-.1-.3-.2-.4-.4-.1-.2-.1-.4-.1-.5v-4.4h-1.8v3.6c0 .6 0 1.1.1 1.7.1.3.2.6.5.9.3.3.6.5 1 .6 1 .3 2 .3 3 0 .4-.1.7-.3 1-.6.2-.3.4-.6.5-.9.1-.5.2-1.1.1-1.7v-3.6h-1.9V17zM194.2 19.4v-1.5h-3l3.4-5.3h-5.7v1.5h2.7l-3.4 5.3zM173.2 12.6h-1.9v6.8h1.9zM170 17.9h-2.4v-1.2h2.3v-1.4h-2.3v-1.2h2.4v-1.5h-4.2v6.8h4.2zM83.3 18.2H86l.3 1.2h1.8l-2.4-6.8h-2.3l-2.3 6.8H83l.3-1.2zm1.1-3.5l.1-.4.1-.5.1.6c.1.1.1.2.1.3l.7 2.2h-1.8l.7-2.2z"/>
    <path class="st0" d="M121.8 19.2c.4-.1.8-.3 1.1-.5.4-.3.8-.7 1-1.1.4-1 .4-2.2 0-3.2-.2-.4-.6-.8-1-1.1-.3-.2-.7-.4-1.1-.5-.7-.1-1.5-.2-2.2-.1h-1.4v6.7h1.7c.6 0 1.3-.1 1.9-.2zm-1.5-5.1c.6 0 1.1.1 1.6.5.4.4.5.9.5 1.4 0 .5-.1 1-.5 1.4-.5.3-1 .5-1.6.4h-.3V14h.3zM108.6 16zM133 19.3c1.4.6 2.9.2 4-.8.7-.6 1.1-1.5 1.1-2.5 0-.9-.4-1.9-1.1-2.5-.3-.3-.7-.6-1.2-.8-.9-.4-1.9-.4-2.8 0-.4.2-.8.4-1.2.8l-.2.2c-1.3 1.4-1.2 3.5.2 4.8.3.3.7.6 1.2.8zm.1-4.7c0-.1.1-.1.1-.1.7-.6 1.8-.6 2.4.1.7.8.7 2 0 2.9-.3.4-.8.6-1.3.6v.1c-.5 0-1-.2-1.3-.6-.6-1-.6-2.2.1-3zM90.1 19.1c.3.2.6.3.9.4.2.1.4.1.6.1v.8h.3c.1 0 .3 0 .4.1.1 0 .1.1.1.2s0 .2-.1.3h-1c-.2 0-.5-.1-.7-.2v.6c.2.1.5.1.7.2h.6c.3 0 .6-.1.9-.3.2-.2.3-.4.3-.7 0-.3-.1-.5-.3-.7-.2-.2-.5-.3-.8-.2v-.2c.3 0 .5 0 .8-.1l.9-.3v-2c-.2.3-.5.5-.8.6-.3.1-.5.2-.8.2-.5 0-1-.2-1.3-.5-.3-.4-.5-.9-.5-1.4 0-.5.2-1 .5-1.4.3-.4.8-.6 1.3-.5.3 0 .6.1.8.2.3.2.5.4.8.6v-2l-.9-.3c-.3-.1-.6-.1-.9-.1-.5 0-.9.1-1.4.2-.4.2-.8.4-1.1.7-.3.3-.6.7-.8 1.1-.2.5-.3.9-.3 1.4 0 .6.1 1.2.4 1.7.5.7.9 1.1 1.4 1.5zM127.4 18.1c-.3 0-.6-.1-.8-.2-.3-.2-.6-.4-.8-.7l-.8 1.4c.3.3.7.6 1.1.8.4.2.9.3 1.3.2.7 0 1.4-.2 1.9-.7.5-.4.7-1.1.7-1.7 0-.3 0-.5-.1-.8-.1-.2-.2-.4-.4-.6-.4-.3-.9-.6-1.5-.7-.3 0-.5-.1-.7-.3l-.1-.1c-.2-.2-.1-.6.1-.7.2-.1.4-.2.5-.2.2 0 .4 0 .7.1.2.1.5.2.6.4l.6-1.3c-.3-.2-.6-.4-1-.5-.4-.1-.7-.2-1.1-.2-.6 0-1.2.2-1.7.6-.4.4-.7 1-.7 1.6 0 .4.1.9.4 1.2.4.4.9.6 1.4.7.3.1.6.2.9.4.1.1.2.3.2.5s-.1.4-.2.5c-.1.2-.3.3-.5.3zM93.7 12.9zM103.6 19.3c1.4.6 2.9.2 4-.8.7-.7 1.1-1.6 1.1-2.5 0-.9-.4-1.8-1.1-2.5-.3-.3-.7-.6-1.2-.8-.9-.4-1.9-.4-2.8 0-.4.2-.8.4-1.2.8l-.2.2c-1.3 1.4-1.2 3.5.2 4.8.4.3.8.6 1.2.8zm.1-4.7c0-.1.1-.1.1-.1.7-.6 1.8-.6 2.4.1.7.8.7 2 0 2.9-.3.4-.8.6-1.3.6v.1c-.5 0-1-.2-1.3-.6-.5-1-.5-2.2.1-3zM158.4 12.6zM55.9 16.7h2.2v-1.4h-2.2v-1.2h2.4v-1.5h-4.2v6.8h1.8zM98.7 12.6h-2.3L94 19.4h1.8l.4-1.2h2.6l.3 1.2h1.9l-2.3-6.8zm-2.1 4.3l.7-2.2.1-.4.1-.5.1.6c.1.1.1.2.1.3l.7 2.2h-1.8zM59.8 18.8c.3.3.6.5 1 .6 1 .3 2 .3 3 0 .4-.1.7-.3 1-.6.2-.3.4-.6.5-.9.1-.5.2-1.1.1-1.7v-3.6h-1.8V17c0 .2-.1.4-.1.5-.1.2-.2.3-.4.4-.4.2-.9.2-1.3 0-.2-.1-.3-.2-.4-.4-.1-.2-.1-.4-.1-.5v-4.4h-2v3.6c0 .6 0 1.1.1 1.7 0 .3.2.6.4.9zM96.7 11.5c.1-.1.2-.1.3-.1l.3.1.4.1h.3c.2 0 .5-.1.6-.3.2-.3.3-.6.4-.9h-.5c0 .1-.1.2-.2.3-.1.1-.2.1-.3.1h-.3l-.4-.1-.2-.1H97c-.2 0-.5.1-.6.3-.2.3-.3.6-.4.9h.6c0-.2 0-.3.1-.3zM59.5 30.2c.2-.3.4-.6.5-.9.1-.5.1-1.1.1-1.7V24h-1.8v4.4c0 .2-.1.4-.1.5-.1.2-.2.3-.4.4-.4.2-.9.2-1.3 0-.2-.1-.3-.2-.4-.4-.1-.2-.1-.4-.1-.5V24h-2v3.6c0 .6 0 1.1.1 1.7.1.3.2.6.5.9.3.3.6.5 1 .6 1 .3 2 .3 3 0 .4-.1.7-.3.9-.6zM114.3 30.9v-.1zM149.8 25.6V24h-4.1v6.9l1.8-.1v-2.7h2.2v-1.4h-2.2v-1.1zM114.3 24v6.7h1.7c.7 0 1.3 0 2-.1.4-.1.8-.3 1.1-.5.4-.3.8-.7 1-1.1.4-1 .4-2.2 0-3.2-.2-.4-.6-.8-1-1.1-.3-.2-.7-.4-1.1-.5-.7-.1-1.5-.2-2.2-.1h-1.5zm1.9 1.6h.3c.6 0 1.1.1 1.6.5.4.4.5.9.5 1.4 0 .5-.1 1-.5 1.4-.5.3-1 .5-1.6.4h-.3v-3.7zM93.7 25.2c.2 0 .4 0 .7.1.2.1.5.2.6.4l.6-1.3c-.3-.2-.6-.4-.9-.5-.4-.1-.7-.2-1.1-.2-.6 0-1.2.2-1.7.6-.5.4-.7 1-.7 1.6 0 .4.2.9.5 1.2.4.4.9.6 1.4.7.3.1.6.2.9.4.1.1.2.3.2.5s-.1.4-.2.5c-.2.1-.4.2-.6.2-.3 0-.6-.1-.8-.2-.3-.2-.6-.4-.8-.7l-.9 1.5c.3.3.7.6 1.1.8.4.2.9.3 1.3.2.7 0 1.4-.2 1.9-.7.5-.4.7-1.1.7-1.7 0-.3 0-.5-.1-.8-.1-.2-.2-.4-.4-.6-.4-.3-.9-.6-1.5-.7h-.1c-.3 0-.5-.1-.7-.3-.1-.1-.2-.3-.2-.4 0-.2.1-.3.2-.4.2-.1.4-.2.6-.2zM61.6 24v6.8h1.7v-3.9c-.1-.2-.1-.5-.1-.8.1.3.3.5.4.8.1.1.2.3.2.4l2.6 3.5h1.8V24h-1.8v3.9c0 .2.1.5.1.8-.1-.3-.3-.5-.4-.8-.1-.1-.2-.3-.2-.4L63.3 24h-1.7zM75.1 30.8h1.4l2.9-6.8h-2L76 27.9c-.1.1-.1.2-.1.3l-.1.6-.2-.6-.1-.3-1.3-3.9h-2l2.9 6.8zM155.6 24.2c-.9-.4-1.9-.4-2.8 0-.4.2-.8.4-1.2.8l-.2.2c-1.3 1.4-1.2 3.5.2 4.8.3.3.7.6 1.2.8 1.4.6 2.9.2 4-.8.7-.7 1.1-1.6 1.1-2.5 0-.9-.4-1.8-1.1-2.5-.4-.4-.8-.6-1.2-.8zm-.1 4.7c-.3.4-.8.6-1.3.6s-.9-.2-1.3-.6c-.7-.8-.7-2 0-2.9 0-.1.1-.1.1-.1.7-.6 1.8-.6 2.4.1.8.9.8 2.1.1 2.9zM106.1 29c.4-1 .4-2.2 0-3.2-.2-.4-.6-.8-1-1.1-.3-.2-.7-.4-1.1-.5-.7-.1-1.5-.2-2.2-.1h-1.4v6.7h1.7c.7 0 1.3 0 2-.1.4-.1.8-.3 1.1-.5.3-.4.6-.7.9-1.2zm-2-.1c-.5.3-1 .5-1.6.4h-.3v-3.8h.3c.6 0 1.2.1 1.6.5.4.4.5.9.5 1.4 0 .6-.2 1.1-.5 1.5zM100.3 30.9v-.1zM157.8 27.5zM97 30.9l1.9-.1V24H97zM109 24.1l-2.3 6.8h1.8l.4-1.2h2.7l.3 1.2h1.8l-2.4-6.8H109zm.3 4.2l.7-2.2.1-.4.1-.5.1.6c.1.1.1.2.1.3l.7 2.2h-1.8zM137.3 30.9l4.1-.1v-1.6h-2.3v-1.1h2.2v-1.4h-2.2v-1.1h2.3V24h-4.1zM130 30.9v-.1zM134.8 24.7c-.3-.2-.7-.4-1.1-.5-.7-.1-1.5-.2-2.2-.1H130v6.7h1.7c.7 0 1.3 0 2-.1.4-.1.8-.3 1.1-.5.4-.3.8-.7 1-1.1.4-1 .4-2.2 0-3.2-.3-.5-.6-.9-1-1.2zm-1.1 4.2c-.5.3-1 .5-1.6.4h-.3v-3.8h.3c.6 0 1.1.1 1.6.5.4.4.5.9.5 1.4.1.6-.1 1.1-.5 1.5zM125.8 29.2h-2.4v-1.1h2.3v-1.4h-2.3v-1.1h2.4V24h-4.2v6.9l4.2-.1zM171.5 24.1l-2.3 6.8h1.8l.4-1.2h2.6l.3 1.2h1.9l-2.4-6.8h-2.3zm.3 4.2l.7-2.2.1-.4.1-.5.1.6c.1.1.1.2.1.3l.7 2.2h-1.8zM181.9 30.9l4.2-.1v-1.6h-2.4v-1.1h2.3v-1.4h-2.3v-1.1h2.4V24h-4.2zM69.8 30.8h1.8V24h-1.8zM178.7 24h-1.8v6.9l4.1-.1v-1.5h-2.3zM189.5 29.4L193 24h-5.8v1.6h2.8l-3.4 5.3h6v-1.5zM197.6 24.1h-2.3l-2.3 6.8h1.9l.4-1.2h2.6l.3 1.2h1.8l-2.4-6.8zm-2 4.2l.7-2.2.1-.4.1-.5.1.6c.1.1.1.2.1.3l.7 2.2h-1.8zM84 29.2h-2.3v-1.1h2.2v-1.4h-2.2v-1.1h2.4V24h-4.2v6.8H84zM87 28.2l1.6 2.7h2.2l-1.9-2.7c.4-.1.8-.3 1.1-.7.3-.4.4-.8.4-1.3 0-.3-.1-.7-.2-1-.1-.3-.3-.5-.6-.7-.2-.2-.5-.3-.8-.4-.5-.1-1.1-.1-1.6-.1h-1.9v6.8H87v-2.6zm.1-2.7h.4c.3 0 .6 0 .9.2.2.2.3.5.3.7 0 .2-.1.5-.3.6-.3.2-.6.2-.9.2h-.3l-.1-1.7zM169.5 24h-4.9v1.7h1.5v5.2h1.8v-5.2h1.6zM163.7 27.5c.3-.4.4-.8.4-1.3 0-.3-.1-.7-.2-1-.1-.3-.3-.5-.6-.7-.2-.2-.5-.3-.8-.4-.5-.1-1.1-.1-1.6-.1H159v6.8h1.7v-2.7l1.6 2.7h2.2l-1.9-2.7c.4-.1.8-.3 1.1-.6zm-1.7-.4c-.3.2-.6.2-.9.2h-.4v-1.8h.4c.3 0 .6 0 .9.2.2.2.3.5.3.7 0 .3-.1.5-.3.7zM140.3 38.9l-.3-.3-.3-.3-3.2-3.1v5.3h.8V37l.2.3.3.2 3.3 3.2v-5.3h-.8zM132.7 40.5h2.9v-.7h-2.1v-1.7h2.1v-.7h-2.1v-1.3h2.1v-.7h-2.9zM152.5 36.9c-.3-.7-.8-1.2-1.5-1.5-.3-.1-.7-.2-1-.2-.4 0-.7.1-1 .2-.3.1-.6.3-.9.6-.8.8-1 1.9-.6 2.9.1.3.3.6.6.9l.9.6c.3.1.7.2 1.1.2.4 0 .7-.1 1-.2.3-.1.6-.3.9-.6.5-.5.8-1.2.8-1.9-.1-.3-.1-.6-.3-1zm-.8 1.8c-.1.2-.2.4-.4.6-.2.2-.4.3-.6.4-.7.3-1.5.1-2-.4-.2-.2-.3-.4-.4-.6-.1-.2-.1-.5-.1-.7 0-.3 0-.5.1-.7.4-.9 1.5-1.4 2.4-1 .2.1.4.2.6.4.2.2.3.4.4.6.1.2.1.5.1.7.1.2 0 .5-.1.7zM145.6 35.9c-.2-.2-.5-.3-.8-.4-.5-.1-1-.1-1.5-.1h-1.1v5.1h1.3c.4 0 .9 0 1.3-.1.3-.1.5-.2.8-.4.3-.2.5-.5.7-.9.2-.4.2-.8.2-1.2 0-.4-.1-.8-.2-1.2-.1-.3-.4-.6-.7-.8zm0 2.9c-.1.2-.2.4-.4.6-.1.1-.3.2-.5.3-.3.1-.6.1-.9.1h-.7v-3.6h.6c.3 0 .6 0 .9.1.2 0 .4.1.5.3.2.2.3.4.4.6.2.5.2 1.1.1 1.6zM74.6 40.5h.9l.6-1.3h2l.6 1.3h.9l-2.5-5.3-2.5 5.3zm2.7-3.1l.5 1.1h-1.4l.5-1.1.1-.3c0-.1.1-.2.1-.3 0 .1.1.2.1.3l.1.3zM73.3 38.9l-.2-.3-.3-.3-3.3-3.1v5.3h.8V37l.2.3.3.2 3.3 3.2v-5.3h-.8zM61.7 38.9l-.3-.3-.3-.3-3.2-3.1v5.3h.8V37l.2.3.2.2 3.3 3.2v-5.3h-.7zM83.9 38.9l-.3-.3-.3-.3-3.3-3.1v5.3h.8V37l.3.3.2.2 3.4 3.2v-5.3h-.8zM67.5 40.5h.9v-5.1h-.9zM65.3 37.5h-.1c-.6-.3-.9-.6-.9-.9 0-.2.1-.3.2-.5.3-.2.7-.2 1-.1.1.1.2.2.3.4l.6-.3c-.1-.3-.3-.5-.5-.6-.3-.2-.6-.2-.9-.2-.4 0-.8.1-1.1.4-.3.3-.4.6-.4 1 0 .3.1.6.3.8.3.3.7.6 1.1.7l.2.1c.5.2.7.5.7.8 0 .2-.1.4-.2.5-.2.1-.4.2-.6.2-.2 0-.5-.1-.6-.2-.2-.1-.3-.3-.3-.5l-.7.3c.1.3.3.6.5.8.3.2.7.3 1.1.3.5 0 .9-.1 1.2-.4.3-.3.5-.7.5-1.1 0-.3-.1-.6-.3-.8-.3-.3-.7-.5-1.1-.7zM89.2 35.9c-.2-.2-.5-.3-.8-.4-.5-.1-1-.1-1.5-.1h-1.1v5.1h1.3c.4 0 .9 0 1.3-.1.3-.1.5-.2.8-.4.3-.2.5-.5.7-.9.3-.8.3-1.6 0-2.4-.2-.3-.4-.6-.7-.8zm-.1 2.9c-.1.2-.2.4-.4.6-.1.1-.3.2-.5.3-.3.1-.6.1-.9.1h-.7l.1-3.6h.5c.3 0 .6 0 .9.1.2 0 .4.1.5.3.2.2.3.4.4.6.3.5.3 1.1.1 1.6zM54.9 36.1h2v-.7h-2.8v5.1h2.8v-.7h-2v-1.7h2v-.7h-2zM99.2 40.5h3v-.7h-2v-1.7h2v-.7h-2v-1.3h2v-.7h-3zM117.9 40.5h2.8v-.7h-2v-1.7h2v-.7h-2v-1.3h2v-.7h-2.8zM125.5 38.9l-.3-.3-.3-.3-3.2-3.1v5.3h.7V37l.2.3.3.2 3.3 3.2v-5.3h-.7zM116.4 37.8c.2-.3.3-.6.3-1 0-.2 0-.4-.1-.6-.2-.4-.5-.6-.8-.7-.3-.1-.5-.1-.8-.1h-1.1v5.1h.8v-2.3l1.7 2.3h.9l-1.8-2.3c.4 0 .7-.2.9-.4zm-1.8-.2v-1.5h.1c.3 0 .6 0 .9.2.2.1.3.4.2.6 0 .2-.1.4-.2.5-.3.1-.6.2-.9.2h-.1zM94.4 35.5c-.7-.3-1.4-.3-2.1 0-.3.1-.6.3-.9.6-.8.8-1 1.9-.6 2.9.1.3.3.6.6.9l.9.6c.3.1.7.2 1.1.2.4 0 .7-.1 1-.2.3-.1.6-.3.9-.6.5-.5.8-1.2.8-1.9h.2c-.1-.4-.2-.7-.4-1-.3-.7-.8-1.3-1.5-1.5zm.7 3.2c-.1.2-.2.4-.4.6-.2.2-.4.3-.6.4-.7.3-1.5.1-2-.4-.2-.2-.3-.4-.4-.6-.1-.2-.1-.5-.1-.7 0-.3 0-.5.1-.7.4-.9 1.5-1.4 2.4-1 .2.1.4.2.6.4.2.2.3.4.4.6.1.2.1.5.1.7h.2c0 .2-.1.5-.3.7zM130.8 35.9c-.2-.2-.5-.3-.8-.4-.5-.1-1-.1-1.5-.1h-1.1v5.1h1.3c.4 0 .9 0 1.3-.1.3-.1.5-.2.8-.4.3-.2.5-.5.7-.9.2-.4.2-.8.2-1.2 0-.4-.1-.8-.2-1.2-.2-.3-.4-.6-.7-.8zm-.1 2.9c-.1.2-.2.4-.4.6-.1.1-.3.2-.5.3-.3.1-.6.1-.9.1h-.7v-3.6h.6c.3 0 .6 0 .9.1.2 0 .4.1.5.3.2.2.3.4.4.6.3.5.3 1.1.1 1.6zM112.5 35.7c-.1-.1-.3-.2-.5-.2-.3 0-.5-.1-.8-.1H110v5.1h.8v-2.3h.5c.3 0 .6 0 .8-.1.2 0 .3-.1.5-.2s.3-.3.4-.5c.1-.2.1-.4.1-.7 0-.2 0-.5-.1-.7-.2-.1-.3-.2-.5-.3zm-.5 1.7c-.3.1-.6.2-.9.1h-.3l.1-1.4h.2c.3 0 .6 0 .9.2.2.1.3.4.2.6.1.2 0 .4-.2.5zM104.7 40.5h.9l.6-1.3h1.9l.6 1.3h1l-2.5-5.3-2.5 5.3zm3-2h-1.4l.5-1.1.1-.3c0-.1.1-.2.1-.3 0 .1.1.2.1.3l.1.3.5 1.1z"/>
</svg>