<svg fill="#fff" xmlns="http://www.w3.org/2000/svg" viewBox="0 0 32 32"><path d="M19.3 3.1v7c0 .6 0 1.1.1 1.3.2.4.5.7 1.1.7.6 0 1.2-.4 1.8-1.1v1H24V3.1h-1.6v6.8c-.4.5-.7.8-1 .8-.2 0-.3-.1-.4-.4V3.1h-1.7zM15.6 12.1c.8 0 1.5-.3 1.9-.9.4-.5.5-1.2.5-2.1V5.9c0-1-.2-1.6-.5-2.1-.4-.6-1.1-.9-1.9-.9-.8 0-1.4.3-1.9.9-.3.4-.5 1.1-.5 2.1V9c0 1 .2 1.7.5 2.1.5.7 1.1 1 1.9 1zm-.7-6.5c0-.8.3-1.2.8-1.2s.8.4.8 1.2v3.8c0 .8-.3 1.3-.8 1.3s-.8-.4-.8-1.3V5.6zM11.1 12V7.1L13.2 0h-1.8l-1.2 4.7L8.9 0H7c.3 1 .7 2.1 1.2 3.3.6 1.7.9 2.9 1.1 3.8V12h1.8zM27.7 14.8c-.5-.5-1.1-.8-1.8-.8-2.2-.2-5.5-.4-9.9-.4s-7.7.1-9.9.4c-.7.1-1.3.4-1.8.8-.5.5-.9 1.1-1 1.8-.3 1.4-.5 3.5-.5 6.3s.2 4.9.5 6.3c.2.7.5 1.3 1 1.8s1.1.8 1.8.8c2.2.1 5.5.2 9.9.2s7.7-.1 9.9-.4c.7-.1 1.3-.3 1.8-.8s.9-1.1 1-1.8c.3-1.4.5-3.5.5-6.3s-.2-4.9-.5-6.3c-.1-.6-.4-1.2-1-1.6zm-17.4 3.5H8.4v10.2H6.6V18.3H4.8v-1.7h5.6l-.1 1.7zm4.8 10.2h-1.6v-1c-.6.7-1.2 1.1-1.8 1.1-.5 0-.9-.2-1-.7-.1-.3-.1-.7-.1-1.3v-7h1.6v7.1c0 .2.2.4.4.4.3 0 .7-.2 1-.8v-6.7h1.6l-.1 8.9zm6.1-2.6c0 .9-.1 1.5-.2 1.8-.2.7-.6 1-1.3 1-.6 0-1.1-.3-1.7-1v.9h-1.6V16.7H18v3.9c.5-.6 1.1-1 1.7-1 .6 0 1.1.3 1.3 1 .1.3.2.9.2 1.8v3.5zm6-1.5H24V26c0 .8.3 1.2.8 1.2.4 0 .6-.2.7-.6v-1.1h1.6v1.2c0 .3-.2.6-.4 1-.4.6-1.1.9-1.9.9-.8 0-1.5-.3-1.9-.9-.3-.4-.5-1.1-.5-2.1v-3.1c0-.9.2-1.6.5-2.1.5-.6 1.1-.9 1.9-.9.8 0 1.4.3 1.9.9.3.4.5 1.1.5 2.1v1.9z"/><path d="M24.9 21c-.5 0-.8.4-.8 1.2v.8h1.6v-.8c0-.8-.3-1.2-.8-1.2zM18.9 21c-.3 0-.5.1-.8.4v5.4c.3.3.5.4.8.4.5 0 .7-.4.7-1.2v-3.8c0-.8-.2-1.2-.7-1.2z"/></svg>